# xmcd
# 
# Track frame offsets:
#     150
#     19768
#     38703
#     58315
# 
# Disc length: 1026
# 
# Revision: 2
# Processed by: cddbd v1.5.2PL0 Copyright (c) Steve Scherf et al.
# Submitted via: fre:ac v1.0.31
# 
DISCID=2e040004
DTITLE=五十鈴華 (CV.尾崎真実) - 「ガールズ&パンツァー」 キャラクターソング VOL.3 - 五十鈴華 (CV.尾崎真実)
DYEAR=2012
DGENRE=Anime
TTITLE0=咲いたはな
TTITLE1=なんて素敵な理想像!
TTITLE2=咲いたはな (Instrumental)
TTITLE3=なんて素敵な理想像! (Instrumental)
EXTD=YEAR: 2012
EXTT0=
EXTT1=
EXTT2=
EXTT3=
PLAYORDER=
